<svg style="display: none;" aria-hidden="true" xmlns="http://www.w3.org/2000/svg" xmlns:xlink="http://www.w3.org/1999/xlink"><symbol fill="none" viewBox="0 0 23 13" id="svg-vk"><path fill-rule="evenodd" clip-rule="evenodd" d="M19.44 7.963c.75.708 1.544 1.367 2.212 2.147.297.344.58.702.795 1.102.304.573.03 1.196-.498 1.231H18.66c-.846.065-1.53-.264-2.094-.823-.453-.45-.876-.923-1.314-1.388a3.32 3.32 0 0 0-.594-.508c-.453-.28-.839-.194-1.099.257-.26.458-.319.966-.349 1.482-.037.744-.267.945-1.046.98-1.664.08-3.245-.164-4.708-.973-1.292-.716-2.294-1.718-3.17-2.863-1.7-2.219-3-4.66-4.173-7.172C-.147.87.04.57.693.555a80.606 80.606 0 0 1 3.222 0c.438.007.727.25.89.644.58 1.374 1.293 2.691 2.183 3.9.238.323.483.645.825.874.378.25.675.172.853-.243.112-.258.164-.537.194-.816.081-.96.096-1.911-.052-2.87-.09-.595-.439-.981-1.055-1.096-.312-.057-.267-.171-.119-.343.268-.3.513-.487 1.01-.487h3.72c.587.115.713.365.794.93v3.987c-.007.222.112.874.528 1.017.326.1.55-.15.742-.351.891-.909 1.53-1.99 2.094-3.106.252-.494.468-1.002.676-1.51.155-.38.4-.566.838-.559h3.58c.103 0 .215 0 .319.022.601.1.772.35.579.916-.297.894-.862 1.632-1.426 2.383-.594.795-1.232 1.568-1.826 2.37-.535.737-.498 1.109.178 1.746Z" fill="black"/></symbol></svg>