<svg width="23" height="13" viewBox="0 0 23 13" fill="none" xmlns="http://www.w3.org/2000/svg">
<path fill-rule="evenodd" clip-rule="evenodd" d="M19.4398 7.9628C20.1897 8.67139 20.9842 9.32988 21.6524 10.1101C21.9494 10.4536 22.2315 10.8115 22.4469 11.2123C22.7513 11.7849 22.4766 12.4076 21.9494 12.4434H18.6602C17.8138 12.5078 17.1307 12.1786 16.5664 11.6203C16.1135 11.1694 15.6903 10.697 15.2523 10.2317C15.0741 10.0456 14.881 9.8667 14.6583 9.72355C14.2054 9.4444 13.8193 9.53029 13.5594 9.98122C13.2995 10.4393 13.2401 10.9475 13.2104 11.4628C13.1733 12.2072 12.9432 12.4076 12.1635 12.4434C10.5004 12.5221 8.91892 12.2788 7.45624 11.47C6.16433 10.7542 5.16199 9.75218 4.28587 8.60697C2.58559 6.38814 1.28626 3.94743 0.113145 1.43515C-0.146722 0.869703 0.0388973 0.569087 0.692277 0.554772C1.76887 0.5333 2.83804 0.5333 3.91463 0.554772C4.35269 0.56193 4.64226 0.805285 4.8056 1.19895C5.38473 2.57319 6.09751 3.89017 6.98848 5.09979C7.22608 5.42188 7.47109 5.74397 7.81263 5.97301C8.1913 6.22352 8.48829 6.14479 8.66648 5.72965C8.77785 5.47198 8.82983 5.19284 8.85953 4.9137C8.9412 3.95459 8.95605 3.00264 8.80755 2.04353C8.71846 1.44946 8.36949 1.06296 7.75324 0.948435C7.4414 0.891175 7.48594 0.776655 7.63444 0.604875C7.90173 0.30426 8.14675 0.118164 8.64421 0.118164H12.364C12.9506 0.232684 13.0768 0.483197 13.1585 1.04864V5.03537C13.151 5.25726 13.2698 5.90859 13.6856 6.05174C14.0123 6.15195 14.2351 5.90143 14.4281 5.70102C15.3191 4.79202 15.9576 3.71124 16.5219 2.59466C16.7743 2.10079 16.9897 1.59261 17.1975 1.08443C17.3535 0.70508 17.5985 0.518985 18.0365 0.526142H21.6153C21.7192 0.526142 21.8306 0.526142 21.9345 0.547615C22.536 0.64782 22.7067 0.898333 22.5137 1.46378C22.2167 2.35847 21.6524 3.09569 21.0881 3.84723C20.4941 4.64171 19.8556 5.41472 19.2616 6.21636C18.727 6.95359 18.7642 7.32578 19.4398 7.9628Z" fill="black"/>
</svg>
